PathFileType	4	(X/Y/Z)	D:\TRACE\v60_Jaco2_6-2-23\BothDRS_Motion2_2-v60.trc
DataRate	CameraRate	NumFrames	NumMarkers	Units	OrigDataRate	OrigDataStartFrame	OrigNumFrames
100.00	100.00	      31	9	mm	100.00	1876	      7500
Frame#	Time	front left toe			Front right toe			aft left toe			aft right toe			Arm			FL body			FR body			AL Body			AR Body			
		X1	Y1	Z1	X2	Y2	Z2	X3	Y3	Z3	X4	Y4	Z4	X5	Y5	Z5	X6	Y6	Z6	X7	Y7	Z7	X8	Y8	Z8	X9	Y9	Z9	

1876	18.750	-206.33287	4.27057	-242.35959	151.20322	88.48621	-284.03143	-186.48906	144.47719	365.40414	234.08418	32.74162	337.94409	-29.58014	1124.46753	-666.16339	-107.66522	552.96918	-391.79553	52.76403	554.11377	-406.45450	-23.07320	610.95026	548.76086	134.22954	607.41968	537.32373	
1877	18.760	-204.71011	4.37288	-242.10776	147.90614	77.73116	-283.95248	-194.32195	134.51959	364.52591	235.53596	32.34056	338.41629	-26.51219	1124.67712	-665.48175	-106.96536	553.19214	-390.94464	52.84991	553.98688	-406.11276	-22.90821	610.79620	549.50116	134.25870	606.11908	537.55396	
1878	18.770	-203.64336	4.76357	-241.62811	144.75035	66.37337	-283.36890	-199.33945	123.40682	364.75964	236.19431	31.57914	338.34732	-23.28941	1124.49329	-664.60358	-107.28623	553.29596	-390.67874	53.04314	553.57092	-405.06857	-22.87772	610.26257	550.06946	135.18283	605.26764	538.22028	
1879	18.780	-202.65178	5.02247	-241.40097	141.85663	55.13272	-281.85114	-204.54132	114.03811	365.30768	237.39102	31.02255	338.87109	-20.00787	1124.32202	-663.78180	-106.56080	553.42700	-389.85901	52.83053	552.81415	-403.63431	-22.78375	609.75781	551.23376	134.19470	604.16638	539.23853	
1880	18.790	-201.78247	5.70805	-241.10036	139.84027	44.91277	-280.03983	-208.17912	105.35902	366.85739	238.50023	30.31629	339.06573	-16.63581	1124.48499	-662.69238	-105.77807	553.40039	-388.90369	53.18124	552.31854	-403.46625	-23.20922	609.58307	551.61548	134.04724	603.26270	539.99231	
1881	18.800	-201.15108	6.35625	-240.89684	138.37408	34.88198	-277.85056	-208.27223	95.65762	369.21841	240.05191	29.81773	339.35568	-13.12605	1124.35364	-661.64697	-106.22734	553.95856	-388.59650	53.52526	551.63226	-402.21118	-23.31593	609.42242	552.25037	133.78558	602.23981	541.11090	
1882	18.810	-199.94171	7.00835	-240.58145	137.63167	25.70554	-274.97351	-207.95111	86.73180	371.83020	240.78772	29.40794	339.77991	-9.52903	1123.84778	-661.11597	-105.33611	553.74969	-387.71979	53.82814	550.69617	-401.40927	-23.65047	609.35529	553.31329	133.99236	601.69971	542.90973	
1883	18.820	-198.82350	7.29306	-240.38438	137.23042	17.82695	-271.21649	-207.14546	79.31550	374.70657	241.78891	28.47309	340.37454	-5.73086	1123.10510	-660.46820	-105.19890	553.85645	-387.06079	55.16069	550.03156	-400.68771	-24.16129	609.09448	554.04004	133.46703	600.75238	544.08234	
1884	18.830	-197.41081	7.53670	-240.03636	138.15186	10.99525	-267.49387	-205.95575	72.70023	377.78210	243.23445	28.28898	340.86234	-1.71016	1122.12085	-659.93768	-104.38946	553.54535	-385.94708	55.09394	549.05829	-399.28720	-24.44225	608.80786	555.10748	133.09692	599.55054	545.32281	
1885	18.840	-196.51048	7.96739	-239.62601	139.71178	10.23401	-268.34476	-204.71671	66.16808	380.49933	243.81622	27.46849	341.29312	2.87641	1120.88733	-659.01208	-103.28561	553.24591	-384.75912	56.71639	548.65503	-398.67932	-24.77115	608.76282	556.04211	133.72386	598.82751	546.65192	
1886	18.850	-195.44351	8.73239	-239.19370	140.79071	6.98482	-268.28043	-204.20862	59.25993	383.35696	244.68393	27.00366	341.59357	6.88407	1120.02673	-658.27411	-103.47272	553.65973	-383.80762	56.59866	548.15051	-397.15475	-24.72715	608.34290	557.26068	132.32985	598.11285	548.06207	
1887	18.860	-194.25618	9.22315	-238.46072	142.78375	7.58045	-267.15906	-205.03516	53.02195	385.49338	245.93948	26.11726	342.36166	10.76444	1119.54285	-657.04681	-102.52529	554.40924	-382.34668	57.00215	548.81226	-395.89432	-25.25268	607.70374	558.58148	129.55591	596.50464	546.61908	
1888	18.870	-192.88820	9.89569	-238.39444	143.31961	9.74285	-267.49368	-204.84827	45.40065	387.08484	246.88995	25.78824	342.76199	13.75343	1119.91174	-655.29633	-102.47168	556.07538	-381.72507	57.40286	549.47217	-394.22620	-25.41476	607.17480	559.72906	129.59386	595.56305	548.19965	
1889	18.880	-191.68732	10.66243	-237.98267	143.71645	11.00592	-266.14737	-204.69171	32.87133	387.80267	248.25479	25.23670	343.29617	15.89827	1121.59167	-652.74249	-101.23122	556.92731	-380.46857	57.87479	549.91254	-393.31244	-25.47309	607.00916	561.27106	131.69336	595.10455	551.34625	
1890	18.890	-190.76187	11.40545	-237.73088	144.80849	12.10218	-265.92297	-204.82889	22.90922	385.59686	249.05948	24.48408	343.71341	17.34792	1124.33630	-649.83777	-100.80493	558.09351	-379.72470	58.82214	550.37048	-391.65564	-25.37047	607.14148	562.37634	131.50038	594.48102	552.48584	
1891	18.900	-189.82695	12.19168	-237.17709	145.88690	12.72420	-265.09470	-205.88136	22.06483	388.16214	249.50905	23.86112	344.10880	18.80907	1127.31055	-647.41589	-99.67085	558.59668	-378.14859	59.11968	549.88232	-390.75647	-24.89824	609.38190	562.49023	131.72987	595.60242	553.56628	
1892	18.910	-188.97989	14.53397	-236.73523	145.92815	12.50609	-262.74207	-203.74902	24.08483	389.21426	249.51767	25.40623	344.53195	20.56165	1129.67310	-645.86517	-99.79470	559.96240	-377.54190	60.01682	550.43884	-390.03467	-24.36510	611.21252	563.57062	132.25528	596.48065	555.27350	
1893	18.920	-186.78603	19.63224	-234.76053	147.00482	13.04120	-263.10022	-201.76154	21.32750	389.87143	246.98300	27.23097	347.98834	23.38062	1130.71094	-645.83972	-98.88884	561.73181	-376.19394	60.20453	552.37805	-389.45377	-23.71482	610.86102	564.96991	133.36111	596.45178	556.69037	
1894	18.930	-182.82901	24.00175	-229.71458	147.97824	13.61609	-262.68552	-201.28951	21.07763	390.15533	244.77414	29.65287	353.53448	26.93500	1130.61755	-645.48834	-99.27385	564.24738	-376.32419	60.60067	554.55750	-388.96646	-23.09407	609.31268	565.81738	132.96942	594.39734	555.97217	
1895	18.940	-178.78516	33.32459	-227.32642	149.29572	13.91382	-262.92914	-200.24612	19.97986	389.84042	241.90547	34.91516	356.20413	30.82116	1130.71509	-644.17560	-98.43945	566.38971	-376.17316	62.02663	555.96283	-388.69440	-22.06705	608.13916	566.18732	132.79890	592.01880	555.20685	
1896	18.950	-177.33061	43.70995	-226.93858	150.20612	13.93314	-262.97729	-198.69998	19.29805	390.27234	240.73177	42.65620	356.12326	33.89625	1131.99878	-642.22125	-96.71535	567.20984	-375.69632	62.16002	556.86499	-388.50427	-21.43337	606.83417	566.35571	133.17506	590.58624	555.68628	
1897	18.960	-176.73204	55.92722	-227.47353	151.75243	14.45920	-262.50778	-197.34706	18.26343	390.34668	240.61151	53.67731	354.07626	36.65276	1134.81763	-639.74347	-94.89100	567.69073	-375.41083	64.56927	557.40057	-387.95343	-20.58085	605.88641	566.77057	133.91618	589.54333	556.21991	
1898	18.970	-176.77499	68.12796	-230.11040	152.98248	14.84107	-262.16129	-196.57466	17.37893	390.72662	242.51785	64.61038	351.80682	38.26944	1137.80298	-637.57227	-93.84983	568.85382	-375.45853	65.95331	557.94513	-387.72379	-20.48724	604.16516	567.56097	134.10454	587.98102	556.70453	
1899	18.980	-176.11203	80.37910	-231.79651	154.03827	15.32722	-261.81039	-195.99010	16.52102	391.11334	245.49052	76.85825	350.30084	40.16103	1140.00781	-635.44879	-91.92233	569.95630	-375.13470	67.14839	558.81189	-386.74405	-20.54618	602.53894	567.69781	133.37677	586.57880	557.36603	
1900	18.990	-175.69719	93.88113	-234.78900	155.02769	16.06951	-261.55627	-194.97517	15.43233	391.16324	247.79390	88.38386	349.93088	41.87777	1141.30603	-633.23895	-89.42974	570.76691	-374.52496	69.70692	559.90283	-386.69345	-20.41976	600.60156	568.28564	133.93982	583.73975	558.05261	
1901	19.000	-175.12395	106.26715	-236.79633	156.06279	16.49787	-261.17184	-194.06795	14.66582	391.16650	248.98337	99.19406	350.67279	44.44914	1142.34412	-631.04236	-87.51444	571.82025	-374.40009	72.07072	561.02655	-386.23584	-19.84932	598.63409	568.67670	135.47101	581.67987	558.74969	
1902	19.010	-173.79779	118.20905	-238.07910	156.98758	17.09550	-260.85974	-193.00102	13.45452	391.55692	249.48349	109.82710	351.34070	47.47018	1143.60193	-628.78711	-86.30722	572.73114	-374.16321	73.37276	561.76190	-385.02890	-19.22362	596.76575	569.28406	136.10793	580.05188	560.00415	
1903	19.020	-171.62578	129.35617	-238.49396	158.41991	17.82591	-260.55411	-191.96849	12.76454	391.94980	250.14204	119.01180	352.65149	50.19596	1145.37842	-626.76459	-83.54683	573.13556	-373.21320	75.66730	562.69434	-384.81268	-18.36433	595.05676	570.22894	136.85997	578.50012	560.47864	
1904	19.030	-169.14584	138.62506	-239.10651	159.26996	18.19185	-260.29849	-191.32285	12.28028	392.24191	250.52367	127.88150	354.16809	52.53907	1147.11633	-624.41046	-82.12121	574.20569	-372.88525	77.52917	563.85449	-384.65530	-17.80951	593.55933	570.90247	137.85338	577.26630	561.65790	
1905	19.040	-166.32933	143.55064	-238.01511	160.50160	18.73070	-260.01395	-190.25757	11.13238	392.44583	249.97740	134.35681	355.56815	54.68427	1148.66687	-621.99683	-80.50327	574.94653	-372.42831	79.17574	564.48273	-382.70459	-16.43767	592.25116	572.21179	137.96402	575.79266	562.04999	
1906	19.050	-163.15407	146.93248	-236.59894	161.53523	19.39415	-259.43954	-189.36397	10.21996	392.69025	251.11751	138.71762	357.40756	56.11496	1149.89282	-619.57172	-78.60204	575.61078	-371.50851	81.98224	564.94293	-381.99847	-16.27599	591.06354	572.70752	139.31934	574.43390	563.50659	
